# xmcd
#
# Track frame offsets:
#	150
#	17606
#	24236
#	36560
#	47895
#	59559
#	72111
#	83504
#	95954
#	108241
#	119335
#	130307
#	146368
#	158125
#
# Disc length: 2243 seconds
#
# Revision: 1
# Processed by: cddbd v1.5.2PL0 Copyright (c) Steve Scherf et al.
# Submitted via: audiograbber 1.83.01
#
DISCID=bd08c10e
DTITLE=Various Artist - Essential Country -14 Country Hits
DYEAR=2009
DGENRE=Country
TTITLE0=Don Williams - I Believe in you
TTITLE1=Jim Reeves - Have I told you lately that I love you
TTITLE2=Patsy Cline - A poor mans roses
TTITLE3=Dolly Parton - Makin' believe
TTITLE4=Don Gibson - Oh lonesome me
TTITLE5=Johnny Cash - Ring of fire
TTITLE6=The Kendalls - Heaven's just a sin away
TTITLE7=Johnny Tillotson - It keeps right on a hurtin'
TTITLE8=Sandy Posey - Single girl
TTITLE9=Roger Miller - King of the road
TTITLE10=Bill Anderson - Wild weekend
TTITLE11=Johnny Cash - A boy named Sue
TTITLE12=Lynn Anderson - Rodeo Cowboy
TTITLE13=Dave Dudley - Six days on the road
EXTD=
EXTT0=
EXTT1=
EXTT2=
EXTT3=
EXTT4=
EXTT5=
EXTT6=
EXTT7=
EXTT8=
EXTT9=
EXTT10=
EXTT11=
EXTT12=
EXTT13=
PLAYORDER=
